<svg width="423" height="122" viewBox="0 0 423 122" fill="none" xmlns="http://www.w3.org/2000/svg">
<path fill-rule="evenodd" clip-rule="evenodd" d="M70.3976 2.35399C70.4051 1.10109 69.4033 0.0793279 68.16 0.0718273L56.2611 4.1524e-05C55.0178 -0.0074591 54.0039 1.00214 53.9965 2.25504L53.9234 14.5702C53.9159 15.8231 54.9177 16.8449 56.161 16.8524L68.0599 16.9242C69.3031 16.9317 70.317 15.9221 70.3245 14.6691L70.3976 2.35399ZM66.2054 4.27327L58.1656 4.22476L58.1156 12.6509L66.1554 12.6994L66.2054 4.27327Z" fill="#057AFF"/>
<path d="M48.5031 5.31852C49.7464 5.31954 50.7551 4.30468 50.7561 3.05175C50.7572 1.79883 49.7501 0.7823 48.5068 0.781278C47.2635 0.780255 46.2548 1.79512 46.2538 3.04805C46.2528 4.30097 47.2598 5.3175 48.5031 5.31852Z" fill="#057AFF"/>
<path fill-rule="evenodd" clip-rule="evenodd" d="M40.2938 16.0067C43.9348 16.0097 46.8889 13.0376 46.8919 9.36831C46.8948 5.69903 43.9456 2.72206 40.3045 2.71907C36.6635 2.71607 33.7094 5.68819 33.7064 9.35747C33.7034 13.0268 36.6527 16.0037 40.2938 16.0067ZM40.2961 13.0899C42.3387 13.0916 43.9958 11.4243 43.9975 9.36593C43.9992 7.30755 42.3447 5.63755 40.3022 5.63587C38.2596 5.63419 36.6025 7.30147 36.6008 9.35985C36.5991 11.4182 38.2536 13.0882 40.2961 13.0899Z" fill="#057AFF"/>
<path d="M12.0675 31.3221C13.3106 31.3403 14.3331 30.3395 14.3511 29.0867C14.3692 27.8339 13.3761 26.8036 12.1329 26.7854C10.8898 26.7671 9.86734 27.768 9.84926 29.0207C9.83118 30.2735 10.8243 31.3039 12.0675 31.3221Z" fill="#057AFF"/>
<path fill-rule="evenodd" clip-rule="evenodd" d="M9.77625 45.2258C13.4169 45.2792 16.4112 42.3482 16.4641 38.6793C16.5171 35.0104 13.6086 31.9929 9.96796 31.9396C6.32728 31.8862 3.33301 34.8172 3.28007 38.4861C3.22713 42.155 6.13557 45.1725 9.77625 45.2258ZM9.81833 42.3094C11.8607 42.3393 13.5404 40.6951 13.5701 38.6369C13.5998 36.5787 11.9682 34.886 9.92588 34.8561C7.88354 34.8262 6.20383 36.4704 6.17413 38.5285C6.14443 40.5867 7.776 42.2794 9.81833 42.3094Z" fill="#057AFF"/>
<path d="M5.73333 46.7872C5.71526 48.04 4.69282 49.0408 3.44966 49.0226C2.20651 49.0044 1.21338 47.974 1.23146 46.7212C1.24953 45.4685 2.27197 44.4676 3.51513 44.4858C4.75829 44.5041 5.75141 45.5344 5.73333 46.7872Z" fill="#057AFF"/>
<path d="M16.3028 49.8592C17.546 49.8774 18.5684 48.8766 18.5865 47.6238C18.6046 46.371 17.6114 45.3407 16.3683 45.3224C15.1251 45.3042 14.1027 46.305 14.0846 47.5578C14.0665 48.8106 15.0597 49.841 16.3028 49.8592Z" fill="#057AFF"/>
<path d="M23.238 37.32C23.2199 38.5728 22.1975 39.5736 20.9543 39.5554C19.7112 39.5372 18.718 38.5068 18.7361 37.2541C18.7542 36.0013 19.7766 35.0004 21.0198 35.0187C22.2629 35.0369 23.2561 36.0672 23.238 37.32Z" fill="#057AFF"/>
<path d="M18.4824 32.5506C18.4682 33.5349 17.6648 34.3212 16.688 34.3069C15.7113 34.2926 14.931 33.4831 14.9452 32.4987C14.9594 31.5144 15.7627 30.728 16.7395 30.7423C17.7162 30.7567 18.4966 31.5662 18.4824 32.5506Z" fill="#057AFF"/>
<path d="M10.5755 45.5617L8.00298 45.524L7.93752 50.0607L10.51 50.0984L10.5755 45.5617Z" fill="#057AFF"/>
<path d="M16.4033 42.8988L17.3152 40.4745L21.5252 42.0827L20.6133 44.5071L16.4033 42.8988Z" fill="#057AFF"/>
<path fill-rule="evenodd" clip-rule="evenodd" d="M38.8661 104.671C42.5067 104.733 45.408 107.757 45.3464 111.426C45.2848 115.095 42.2836 118.019 38.643 117.956C35.0025 117.894 32.1012 114.87 32.1628 111.201C32.2244 107.532 35.2256 104.609 38.8661 104.671ZM38.8172 107.587C40.8594 107.622 42.487 109.319 42.4524 111.377C42.4178 113.435 40.7343 115.075 38.692 115.04C36.6497 115.005 35.0222 113.309 35.0567 111.251C35.0913 109.192 36.7749 107.552 38.8172 107.587Z" fill="#057AFF"/>
<path d="M46.8861 115.504C48.1292 115.525 49.1199 116.558 49.0989 117.811C49.0778 119.063 48.053 120.062 46.8099 120.041C45.5668 120.019 44.5761 118.987 44.5971 117.734C44.6182 116.481 45.643 115.483 46.8861 115.504Z" fill="#057AFF"/>
<path d="M49.9596 104.86C49.9807 103.607 48.99 102.574 47.7469 102.553C46.5038 102.532 45.479 103.53 45.4579 104.783C45.4369 106.036 46.4276 107.069 47.6707 107.09C48.9138 107.111 49.9386 106.113 49.9596 104.86Z" fill="#057AFF"/>
<path d="M37.5335 97.8412C38.7766 97.8624 39.7673 98.8951 39.7462 100.148C39.7252 101.401 38.7004 102.399 37.4573 102.378C36.2142 102.357 35.2235 101.324 35.2445 100.071C35.2655 98.8183 36.2903 97.82 37.5335 97.8412Z" fill="#057AFF"/>
<path d="M31.5551 109.084C31.5761 107.831 30.5854 106.798 29.3423 106.777C28.0992 106.756 27.0744 107.754 27.0534 109.007C27.0323 110.26 28.023 111.293 29.2661 111.314C30.5092 111.335 31.534 110.337 31.5551 109.084Z" fill="#057AFF"/>
<path d="M32.7893 102.622C33.7661 102.639 34.5445 103.45 34.5279 104.435C34.5114 105.419 33.7062 106.203 32.7295 106.187C31.7527 106.17 30.9743 105.359 30.9909 104.374C31.0074 103.39 31.8126 102.606 32.7893 102.622Z" fill="#057AFF"/>
<path d="M45.6815 110.621L45.638 113.214L50.1397 113.291L50.1832 110.698L45.6815 110.621Z" fill="#057AFF"/>
<path d="M43.0531 104.742L40.6495 103.817L42.2554 99.5786L44.659 100.503L43.0531 104.742Z" fill="#057AFF"/>
<path d="M51.3889 16.0158C51.3878 17.2688 50.3791 18.2836 49.1358 18.2826C47.8925 18.2816 46.8855 17.2651 46.8865 16.0121C46.8875 14.7592 47.8962 13.7443 49.1395 13.7454C50.3828 13.7464 51.3899 14.7629 51.3889 16.0158Z" fill="#057AFF"/>
<path d="M38.8411 22.8114C40.0844 22.8124 41.0931 21.7975 41.0941 20.5446C41.0951 19.2917 40.088 18.2752 38.8447 18.2741C37.6015 18.2731 36.5927 19.288 36.5917 20.5409C36.5907 21.7938 37.5978 22.8104 38.8411 22.8114Z" fill="#057AFF"/>
<path d="M33.0615 11.4635C33.0605 12.7164 32.0518 13.7313 30.8085 13.7303C29.5652 13.7293 28.5582 12.7127 28.5592 11.4598C28.5602 10.2069 29.5689 9.19202 30.8122 9.19305C32.0555 9.19407 33.0625 10.2106 33.0615 11.4635Z" fill="#057AFF"/>
<path d="M34.1819 17.9462C35.1587 17.947 35.9513 17.1496 35.9521 16.1652C35.9529 15.1807 35.1616 14.382 34.1847 14.3812C33.2079 14.3804 32.4153 15.1778 32.4145 16.1623C32.4137 17.1467 33.205 17.9454 34.1819 17.9462Z" fill="#057AFF"/>
<path d="M47.2128 10.1788L47.2149 7.58609L51.7173 7.58979L51.7152 10.1825L47.2128 10.1788Z" fill="#057AFF"/>
<path d="M44.4813 16.0102L42.0618 16.8918L43.5929 21.1587L46.0123 20.277L44.4813 16.0102Z" fill="#057AFF"/>
<path fill-rule="evenodd" clip-rule="evenodd" d="M15.569 80.187C15.6299 76.5183 12.7279 73.4944 9.08737 73.4331C5.44682 73.3718 2.44624 76.2962 2.3854 79.965C2.32456 83.6338 5.22649 86.6576 8.86705 86.7189C12.5076 86.7802 15.5082 83.8558 15.569 80.187ZM12.6751 80.1383C12.7092 78.0802 11.0813 76.3839 9.03901 76.3495C6.99674 76.3151 5.31349 77.9556 5.27936 80.0137C5.24523 82.0718 6.87315 83.7681 8.91541 83.8025C10.9577 83.8369 12.6409 82.1964 12.6751 80.1383Z" fill="#057AFF"/>
<path d="M5.09484 71.7452C5.11562 70.4924 4.12471 69.4599 2.8816 69.439C1.63848 69.418 0.613893 70.4166 0.593118 71.6694C0.572344 72.9221 1.56325 73.9547 2.80636 73.9756C4.04948 73.9965 5.07407 72.9979 5.09484 71.7452Z" fill="#057AFF"/>
<path d="M15.7544 69.0075C16.9975 69.0284 17.9884 70.061 17.9677 71.3137C17.9469 72.5665 16.9223 73.5651 15.6792 73.5441C14.4361 73.5232 13.4452 72.4907 13.4659 71.2379C13.4867 69.9852 14.5113 68.9866 15.7544 69.0075Z" fill="#057AFF"/>
<path d="M22.2974 81.7589C22.3182 80.5062 21.3273 79.4737 20.0842 79.4527C18.8411 79.4318 17.8165 80.4304 17.7957 81.6831C17.7749 82.9359 18.7658 83.9684 20.0089 83.9893C21.2521 84.0103 22.2767 83.0117 22.2974 81.7589Z" fill="#057AFF"/>
<path d="M10.9464 87.4022C12.1895 87.4231 13.1804 88.4556 13.1596 89.7084C13.1389 90.9611 12.1143 91.9597 10.8712 91.9388C9.62804 91.9179 8.63713 90.8853 8.65791 89.6326C8.67868 88.3798 9.70327 87.3812 10.9464 87.4022Z" fill="#057AFF"/>
<path d="M17.3962 86.3763C17.4126 85.392 16.634 84.5808 15.6573 84.5643C14.6805 84.5479 13.8755 85.3325 13.8592 86.3168C13.8428 87.3011 14.6214 88.1123 15.5981 88.1288C16.5749 88.1452 17.3799 87.3607 17.3962 86.3763Z" fill="#057AFF"/>
<path d="M9.89663 73.1226L7.32421 73.0793L7.39944 68.5427L9.97186 68.586L9.89663 73.1226Z" fill="#057AFF"/>
<path d="M15.639 75.9676L16.4753 78.4195L20.7332 76.9447L19.8968 74.4928L15.639 75.9676Z" fill="#057AFF"/>
<path d="M17.7884 58.353L17.7764 60.9457L23.3203 60.9717L23.3323 58.3791L17.7884 58.353Z" fill="#057AFF"/>
<path fill-rule="evenodd" clip-rule="evenodd" d="M2.45692 50.9528C1.21376 50.9346 0.191328 51.9354 0.173251 53.1882L0.000242914 65.1782C-0.0178341 66.431 0.975291 67.4614 2.21845 67.4796L14.4378 67.6587C15.681 67.6769 16.7034 66.6761 16.7215 65.4233L16.8945 53.4332C16.9126 52.1804 15.9195 51.1501 14.6763 51.1319L2.45692 50.9528ZM4.32551 55.1938L4.20861 63.2952L12.5692 63.4177L12.6861 55.3163L4.32551 55.1938Z" fill="#057AFF"/>
<path d="M28.6908 89.214L30.5218 91.0354L34.4164 87.0592L32.5853 85.2378L28.6908 89.214Z" fill="#057AFF"/>
<path fill-rule="evenodd" clip-rule="evenodd" d="M12.7215 95.0867C11.8394 95.9697 11.8346 97.4061 12.7108 98.295L21.0964 106.803C21.9726 107.691 23.398 107.696 24.2801 106.813L32.9503 98.1343C33.8324 97.2513 33.8372 95.8149 32.961 94.926L24.5754 86.4184C23.6992 85.5295 22.2738 85.5247 21.3917 86.4077L12.7215 95.0867ZM17.0368 96.7055L22.7027 102.454L28.635 96.5155L22.9691 90.7672L17.0368 96.7055Z" fill="#057AFF"/>
<path d="M31.4191 29.157L29.6747 31.0627L33.7497 34.8508L35.4941 32.9451L31.4191 29.157Z" fill="#057AFF"/>
<path fill-rule="evenodd" clip-rule="evenodd" d="M25.0555 13.2715C24.15 12.4129 22.7253 12.4566 21.8733 13.3691L13.7193 22.1023C12.8673 23.0148 12.9107 24.4506 13.8162 25.3092L22.7165 33.7484C23.6219 34.607 25.0466 34.5633 25.8986 33.6508L34.0526 24.9176C34.9046 24.0051 34.8612 22.5694 33.9557 21.7108L25.0555 13.2715ZM23.5959 17.6724L18.0864 23.5733L24.1761 29.3475L29.6855 23.4467L23.5959 17.6724Z" fill="#057AFF"/>
<path fill-rule="evenodd" clip-rule="evenodd" d="M106.134 39.9933C106.081 43.6622 108.99 46.6797 112.631 46.7331C116.271 46.7864 119.266 43.8554 119.318 40.1865C119.371 36.5176 116.463 33.5002 112.822 33.4468C109.182 33.3935 106.187 36.3244 106.134 39.9933ZM109.028 40.0357C108.999 42.0939 110.63 43.7866 112.673 43.8166C114.715 43.8465 116.395 42.2023 116.424 40.1441C116.454 38.086 114.823 36.3932 112.78 36.3633C110.738 36.3334 109.058 37.9776 109.028 40.0357Z" fill="#057AFF"/>
<path d="M116.627 48.4122C116.609 49.665 117.602 50.6954 118.845 50.7136C120.088 50.7318 121.111 49.731 121.129 48.4782C121.147 47.2254 120.154 46.195 118.91 46.1768C117.667 46.1586 116.645 47.1594 116.627 48.4122Z" fill="#057AFF"/>
<path d="M105.973 51.1732C104.73 51.155 103.737 50.1246 103.755 48.8719C103.773 47.6191 104.795 46.6182 106.039 46.6365C107.282 46.6547 108.275 47.685 108.257 48.9378C108.239 50.1906 107.216 51.1914 105.973 51.1732Z" fill="#057AFF"/>
<path d="M99.4026 38.4361C99.3845 39.6889 100.378 40.7193 101.621 40.7375C102.864 40.7557 103.886 39.7549 103.904 38.5021C103.923 37.2493 102.929 36.2189 101.686 36.2007C100.443 36.1825 99.4207 37.1833 99.4026 38.4361Z" fill="#057AFF"/>
<path d="M110.741 32.7681C109.498 32.7498 108.505 31.7195 108.523 30.4667C108.541 29.2139 109.564 28.2131 110.807 28.2313C112.05 28.2495 113.043 29.2799 113.025 30.5327C113.007 31.7855 111.985 32.7863 110.741 32.7681Z" fill="#057AFF"/>
<path d="M104.294 33.808C104.28 34.7924 105.06 35.6019 106.037 35.6162C107.013 35.6305 107.817 34.8442 107.831 33.8599C107.845 32.8755 107.065 32.066 106.088 32.0516C105.111 32.0373 104.308 32.8237 104.294 33.808Z" fill="#057AFF"/>
<path d="M111.822 47.0453L114.394 47.083L114.329 51.6198L111.757 51.5821L111.822 47.0453Z" fill="#057AFF"/>
<path d="M106.074 44.2129L105.232 41.7628L100.977 43.247L101.819 45.6971L106.074 44.2129Z" fill="#057AFF"/>
<path fill-rule="evenodd" clip-rule="evenodd" d="M81.8378 105.3C78.197 105.256 75.2097 108.194 75.1654 111.863C75.1212 115.532 78.0367 118.543 81.6775 118.587C85.3183 118.632 88.3057 115.694 88.3499 112.025C88.3942 108.356 85.4786 105.345 81.8378 105.3ZM81.8026 108.217C79.7602 108.192 78.0844 109.84 78.0596 111.898C78.0348 113.957 79.6703 115.646 81.7127 115.671C83.7551 115.696 85.4309 114.047 85.4558 111.989C85.4806 109.931 83.845 108.242 81.8026 108.217Z" fill="#057AFF"/>
<path d="M73.5087 115.894C72.2655 115.879 71.2454 116.882 71.2303 118.135C71.2152 119.388 72.2108 120.416 73.454 120.431C74.6972 120.446 75.7172 119.443 75.7324 118.19C75.7475 116.937 74.7519 115.909 73.5087 115.894Z" fill="#057AFF"/>
<path d="M70.7436 105.165C70.7587 103.912 71.7787 102.908 73.0219 102.924C74.2651 102.939 75.2607 103.967 75.2456 105.22C75.2305 106.473 74.2104 107.476 72.9672 107.461C71.724 107.445 70.7284 106.417 70.7436 105.165Z" fill="#057AFF"/>
<path d="M83.367 98.5128C82.1238 98.4976 81.1037 99.5009 81.0886 100.754C81.0735 102.007 82.0691 103.034 83.3123 103.05C84.5555 103.065 85.5755 102.062 85.5906 100.809C85.6058 99.556 84.6102 98.528 83.367 98.5128Z" fill="#057AFF"/>
<path d="M89.0185 109.926C89.0336 108.673 90.0537 107.67 91.2969 107.685C92.5401 107.7 93.5356 108.728 93.5205 109.981C93.5054 111.234 92.4853 112.237 91.2421 112.222C89.9989 112.207 89.0034 111.179 89.0185 109.926Z" fill="#057AFF"/>
<path d="M87.9712 103.431C86.9944 103.419 86.1929 104.207 86.181 105.192C86.1691 106.176 86.9514 106.984 87.9282 106.996C88.905 107.008 89.7064 106.219 89.7183 105.235C89.7302 104.251 88.948 103.443 87.9712 103.431Z" fill="#057AFF"/>
<path d="M74.8536 111.049L74.8224 113.641L70.3203 113.586L70.3516 110.994L74.8536 111.049Z" fill="#057AFF"/>
<path d="M77.6506 105.249L80.0798 104.395L78.5969 100.111L76.1677 100.965L77.6506 105.249Z" fill="#057AFF"/>
<path fill-rule="evenodd" clip-rule="evenodd" d="M82.969 16.6321C79.3294 16.5284 76.4623 13.471 76.5652 9.80314C76.6681 6.13532 79.702 3.24603 83.3416 3.34973C86.9812 3.45342 89.8483 6.51084 89.7454 10.1787C89.6425 13.8465 86.6086 16.7358 82.969 16.6321ZM83.0508 13.7164C81.0091 13.6583 79.4007 11.9431 79.4584 9.88557C79.5161 7.82801 81.2181 6.20719 83.2598 6.26536C85.3016 6.32353 86.9099 8.03867 86.8522 10.0962C86.7945 12.1538 85.0925 13.7746 83.0508 13.7164Z" fill="#057AFF"/>
<path d="M75.0715 5.70785C73.8287 5.67244 72.8497 4.62845 72.8848 3.37602C72.92 2.1236 73.9559 1.13701 75.1987 1.17242C76.4415 1.20783 77.4205 2.25182 77.3854 3.50425C77.3502 4.75667 76.3143 5.74326 75.0715 5.70785Z" fill="#057AFF"/>
<path d="M71.8783 16.3161C71.8432 17.5685 72.8222 18.6125 74.065 18.6479C75.3078 18.6833 76.3438 17.6967 76.3789 16.4443C76.414 15.1919 75.435 14.1479 74.1922 14.1125C72.9494 14.0771 71.9135 15.0637 71.8783 16.3161Z" fill="#057AFF"/>
<path d="M84.2247 23.4764C82.9819 23.441 82.0029 22.397 82.0381 21.1446C82.0732 19.8922 83.1092 18.9056 84.352 18.941C85.5948 18.9764 86.5738 20.0204 86.5386 21.2728C86.5035 22.5253 85.4675 23.5118 84.2247 23.4764Z" fill="#057AFF"/>
<path d="M90.3293 12.3027C90.2941 13.5551 91.2731 14.5991 92.5159 14.6345C93.7587 14.67 94.7947 13.6834 94.8298 12.4309C94.865 11.1785 93.886 10.1345 92.6432 10.0991C91.4004 10.0637 90.3644 11.0503 90.3293 12.3027Z" fill="#057AFF"/>
<path d="M89.0224 18.7498C88.0459 18.722 87.2767 17.9017 87.3043 16.9177C87.3319 15.9336 88.1458 15.1585 89.1223 15.1863C90.0988 15.2141 90.868 16.0344 90.8404 17.0184C90.8128 18.0025 89.9988 18.7777 89.0224 18.7498Z" fill="#057AFF"/>
<path d="M76.221 10.6039L76.2937 8.0122L71.7932 7.88398L71.7205 10.4757L76.221 10.6039Z" fill="#057AFF"/>
<path d="M78.7831 16.5128L81.1761 17.465L79.5226 21.6852L77.1297 20.733L78.7831 16.5128Z" fill="#057AFF"/>
<path fill-rule="evenodd" clip-rule="evenodd" d="M105.832 81.5097C105.877 77.8407 108.865 74.9032 112.505 74.9486C116.146 74.994 119.061 78.0051 119.016 81.6741C118.971 85.3431 115.983 88.2806 112.342 88.2352C108.701 88.1898 105.786 85.1787 105.832 81.5097ZM108.726 81.5458C108.751 79.4876 110.427 77.8397 112.469 77.8652C114.512 77.8906 116.147 79.5798 116.122 81.638C116.097 83.6962 114.42 85.3441 112.378 85.3186C110.336 85.2932 108.7 83.604 108.726 81.5458Z" fill="#057AFF"/>
<path d="M116.545 73.3784C116.56 72.1255 117.58 71.1225 118.824 71.138C120.067 71.1535 121.062 72.1817 121.047 73.4345C121.031 74.6873 120.011 75.6904 118.768 75.6749C117.525 75.6594 116.529 74.6312 116.545 73.3784Z" fill="#057AFF"/>
<path d="M105.969 70.3295C104.726 70.314 103.705 71.3171 103.69 72.5699C103.675 73.8227 104.67 74.8509 105.913 74.8664C107.156 74.8819 108.177 73.8788 108.192 72.626C108.207 71.3732 107.212 70.345 105.969 70.3295Z" fill="#057AFF"/>
<path d="M99.0606 82.8838C99.076 81.631 100.096 80.6279 101.339 80.6434C102.583 80.6589 103.578 81.6871 103.563 82.9399C103.547 84.1928 102.527 85.1958 101.284 85.1803C100.041 85.1648 99.0452 84.1367 99.0606 82.8838Z" fill="#057AFF"/>
<path d="M110.244 88.8573C109.001 88.8418 107.981 89.8448 107.965 91.0977C107.95 92.3505 108.945 93.3787 110.188 93.3942C111.432 93.4097 112.452 92.4066 112.467 91.1538C112.483 89.901 111.487 88.8728 110.244 88.8573Z" fill="#057AFF"/>
<path d="M103.827 87.6429C103.839 86.6585 104.64 85.8704 105.617 85.8826C106.594 85.8947 107.376 86.7026 107.364 87.687C107.352 88.6714 106.55 89.4595 105.573 89.4473C104.596 89.4351 103.814 88.6273 103.827 87.6429Z" fill="#057AFF"/>
<path d="M111.705 74.6145L114.278 74.6466L114.334 70.1097L111.761 70.0776L111.705 74.6145Z" fill="#057AFF"/>
<path d="M105.883 77.2901L104.977 79.7164L100.763 78.1174L101.67 75.691L105.883 77.2901Z" fill="#057AFF"/>
<path d="M104.243 59.6199L104.18 62.2118L98.6379 62.0754L98.7007 59.4835L104.243 59.6199Z" fill="#057AFF"/>
<path fill-rule="evenodd" clip-rule="evenodd" d="M119.782 52.6721C121.025 52.6903 122.018 53.7206 122 54.9734L121.827 66.9635C121.809 68.2163 120.786 69.2171 119.543 69.1989L107.324 69.0198C106.081 69.0016 105.087 67.9712 105.105 66.7184L105.279 54.7284C105.297 53.4756 106.319 52.4748 107.562 52.493L119.782 52.6721ZM117.791 56.8565L117.674 64.9579L109.314 64.8354L109.431 56.734L117.791 56.8565Z" fill="#057AFF"/>
<path d="M92.4549 90.1484L90.572 91.9153L86.7939 87.8267L88.6767 86.0598L92.4549 90.1484Z" fill="#057AFF"/>
<path fill-rule="evenodd" clip-rule="evenodd" d="M108.248 96.4865C109.104 97.395 109.068 98.8309 108.166 99.6938L99.5385 107.952C98.6371 108.815 97.2122 108.778 96.3559 107.869L87.9397 98.9401C87.0835 98.0316 87.1202 96.5957 88.0216 95.7328L96.6492 87.4746C97.5507 86.6117 98.9756 86.6487 99.8318 87.5571L108.248 96.4865ZM103.888 97.9782L98.0584 103.558L92.2999 97.4484L98.1293 91.8686L103.888 97.9782Z" fill="#057AFF"/>
<path d="M91.4604 30.0368L93.1492 31.9928L88.9666 35.66L87.2779 33.704L91.4604 30.0368Z" fill="#057AFF"/>
<path fill-rule="evenodd" clip-rule="evenodd" d="M98.2798 14.3445C99.2096 13.5128 100.632 13.5983 101.458 14.5353L109.356 23.5038C110.182 24.4409 110.097 25.8747 109.167 26.7064L100.027 34.8813C99.0971 35.713 97.6743 35.6276 96.849 34.6905L88.9504 25.7221C88.1251 24.785 88.2099 23.3511 89.1398 22.5194L98.2798 14.3445ZM99.6118 18.7864L104.949 24.8461L98.695 30.4395L93.3581 24.3797L99.6118 18.7864Z" fill="#057AFF"/>
<path d="M59.6543 98.4869L59.6284 104.074L62.2012 104.086L62.227 98.499L59.6543 98.4869Z" fill="#057AFF"/>
<path fill-rule="evenodd" clip-rule="evenodd" d="M52.2851 119.524C52.2671 120.777 53.2602 121.807 54.5033 121.825L66.4012 122C67.6443 122.018 68.6668 121.017 68.6848 119.764L68.8625 107.45C68.8806 106.198 67.8875 105.167 66.6443 105.149L54.7465 104.975C53.5033 104.956 52.4809 105.957 52.4628 107.21L52.2851 119.524ZM56.4935 117.641L64.5326 117.759L64.6541 109.333L56.6151 109.216L56.4935 117.641Z" fill="#057AFF"/>
<path d="M63.1858 17.867L60.613 17.8771L60.632 22.8084L61.261 22.8066L61.2629 23.4615L63.2073 23.4539L63.1858 17.867Z" fill="#057AFF"/>
<path d="M60.3075 25.8879C51.4438 26.062 43.3701 29.5769 37.2967 35.2482L40.9537 38.9037C46.0925 34.1748 52.8781 31.2425 60.3221 31.0742L60.3075 25.8879Z" fill="#057AFF"/>
<path d="M31.2795 59.9908C31.5561 51.9758 34.9452 44.7793 40.2533 39.5694L36.5996 35.9173C30.3641 42.0684 26.4023 50.5635 26.1305 60.0161L31.2795 59.9908Z" fill="#057AFF"/>
<path d="M31.2613 60.9606L26.1156 60.9859C26.0982 70.0521 29.4965 78.3416 35.0996 84.5982L38.7577 80.9417C34.0709 75.6218 31.2381 68.6149 31.2613 60.9606Z" fill="#057AFF"/>
<path d="M39.4085 81.657L35.7544 85.3095C41.9916 91.9014 50.7504 96.0619 60.5016 96.2048L60.5065 96.2049L60.4918 91.0186C52.176 90.8734 44.7124 87.3007 39.4085 81.657Z" fill="#057AFF"/>
<path d="M61.2697 25.8822C61.3518 25.8828 61.434 25.8837 61.5162 25.8849C70.4252 26.0155 78.5057 29.4996 84.5917 35.1275L80.9336 38.784C75.7663 34.0832 68.9489 31.1798 61.4414 31.0698C61.3891 31.069 61.3367 31.0684 61.2844 31.0679L61.2697 25.8822Z" fill="#057AFF"/>
<path d="M81.638 39.4458L85.2921 35.7933C91.5397 41.8971 95.5226 50.329 95.8765 59.6736L90.7275 59.6989C90.381 51.7664 86.9668 44.6166 81.638 39.4458Z" fill="#057AFF"/>
<path d="M83.1428 81.0745C87.7814 75.8732 90.6446 69.0225 90.7535 61.4807C90.7574 61.2092 90.7577 60.9384 90.7545 60.6685L95.9001 60.6432C95.9034 60.9466 95.9029 61.251 95.8984 61.5561C95.7695 70.4949 92.3417 78.6062 86.7999 84.73L83.1428 81.0745Z" fill="#057AFF"/>
<path d="M61.4541 91.02C69.7038 90.9001 77.1609 87.3855 82.4878 81.7857L86.1415 85.4378C79.8839 91.9828 71.1385 96.0823 61.4688 96.2057L61.4541 91.02Z" fill="#057AFF"/>
<path d="M60.9123 96.2084L61.3287 96.2072C61.1901 96.2085 61.0513 96.2089 60.9123 96.2084Z" fill="#057AFF"/>
<path d="M386.176 43.093V89.8419H422.206L413.19 78.1432H399.164V59.9444L386.176 43.093Z" fill="#057AFF"/>
<path d="M414.981 78.1432L423 88.5472V78.1432H414.981Z" fill="#057AFF"/>
<path d="M399.164 57.62L386.176 40.7686V35.2479H399.164V57.62Z" fill="#057AFF"/>
<path fill-rule="evenodd" clip-rule="evenodd" d="M217.706 48.4284H217.559V53.4714C216.826 52.487 215.986 51.6119 215.038 50.8462C213.816 49.8063 212.39 49.0004 210.76 48.4284C209.181 47.8565 207.424 47.5705 205.488 47.5705C201.974 47.5705 198.842 48.5064 196.091 50.3782C193.341 52.198 191.176 54.7197 189.597 57.9434C188.019 61.167 187.229 64.8846 187.229 69.0962C187.229 73.2037 188.019 76.8953 189.597 80.1709C191.176 83.3946 193.29 85.9423 195.939 87.8141C198.638 89.6339 201.694 90.5438 205.106 90.5438C206.94 90.5438 208.672 90.2578 210.301 89.6859C211.931 89.114 213.408 88.334 214.733 87.3461C215.709 86.6176 216.575 85.8041 217.33 84.9058V89.8419H229.707V63.9986L217.706 48.4284ZM213.357 78.6891C211.982 79.573 210.352 80.015 208.468 80.015C206.634 80.015 205.03 79.573 203.655 78.6891C202.331 77.8052 201.286 76.5573 200.522 74.9455C199.758 73.2817 199.376 71.3319 199.376 69.0962C199.376 66.8604 199.758 64.9366 200.522 63.3248C201.286 61.661 202.331 60.3871 203.655 59.5032C205.03 58.5673 206.634 58.0994 208.468 58.0994C210.352 58.0994 211.982 58.5673 213.357 59.5032C214.733 60.3871 215.802 61.661 216.566 63.3248C217.33 64.9366 217.712 66.8604 217.712 69.0962C217.712 71.3319 217.33 73.2817 216.566 74.9455C215.802 76.5573 214.733 77.8052 213.357 78.6891Z" fill="#057AFF"/>
<path d="M235.909 72.0456V107H248.209V88.0048L235.909 72.0456Z" fill="#057AFF"/>
<path fill-rule="evenodd" clip-rule="evenodd" d="M248.209 85.6804L235.909 69.7212V48.4284H247.521L247.743 52.9203C247.914 52.7199 248.095 52.5224 248.285 52.328C249.66 50.9241 251.392 49.8063 253.48 48.9744C255.62 48.0905 257.861 47.6485 260.203 47.6485C263.667 47.6485 266.748 48.5844 269.448 50.4562C272.147 52.276 274.261 54.7977 275.789 58.0214C277.368 61.193 278.157 64.8846 278.157 69.0962C278.157 73.2557 277.368 76.9473 275.789 80.1709C274.261 83.3946 272.122 85.9423 269.371 87.8141C266.672 89.6339 263.565 90.5438 260.051 90.5438C257.759 90.5438 255.569 90.1018 253.48 89.2179C251.392 88.334 249.635 87.1382 248.209 85.6303V85.6804ZM257.071 80.015C258.905 80.015 260.509 79.573 261.884 78.6891C263.259 77.7532 264.329 76.4793 265.093 74.8675C265.857 73.2557 266.239 71.3319 266.239 69.0962C266.239 66.9124 265.857 65.0146 265.093 63.4028C264.329 61.739 263.259 60.4651 261.884 59.5812C260.56 58.6453 258.956 58.1773 257.071 58.1773C255.187 58.1773 253.557 58.6193 252.182 59.5032C250.806 60.3871 249.737 61.661 248.973 63.3248C248.209 64.9886 247.827 66.9124 247.827 69.0962C247.827 71.3319 248.209 73.2557 248.973 74.8675C249.737 76.4793 250.806 77.7532 252.182 78.6891C253.557 79.573 255.187 80.015 257.071 80.015Z" fill="#057AFF"/>
<path d="M229.707 61.6742L219.498 48.4284H229.707V61.6742Z" fill="#057AFF"/>
<path d="M329.051 47.5331C328.426 48.6344 327.871 49.7907 327.385 51.0021C326.01 54.4338 325.323 58.2033 325.323 62.3109C325.323 66.4184 326.01 70.188 327.385 73.6197C328.761 77.0513 330.696 80.0409 333.192 82.5887C335.687 85.1364 338.616 87.1122 341.977 88.516C345.339 89.9199 349.032 90.6218 353.055 90.6218C356.01 90.6218 358.787 90.2431 361.385 89.4859L352.639 78.1379C350.709 78.0893 348.913 77.7011 347.249 76.9733C345.517 76.1934 343.989 75.1015 342.665 73.6976C341.341 72.2938 340.322 70.63 339.609 68.7062C338.947 66.7304 338.616 64.5986 338.616 62.3109C338.616 61.5491 338.653 60.8075 338.726 60.0861L329.051 47.5331Z" fill="#057AFF"/>
<path d="M353.183 76.5198L369.681 97.9251L378.343 91.4017L373.226 84.3052L357.425 63.803L348.548 70.11L353.183 76.5198Z" fill="#057AFF"/>
<path d="M365.081 71.4128C365.61 70.5466 366.058 69.6184 366.425 68.6282C367.138 66.7044 367.495 64.5986 367.495 62.3109C367.495 60.0231 367.138 57.9174 366.425 55.9936C365.712 54.0698 364.693 52.406 363.369 51.0021C362.096 49.5463 360.568 48.4284 358.785 47.6485C357.053 46.8686 355.144 46.4786 353.055 46.4786C350.967 46.4786 349.032 46.8686 347.249 47.6485C345.517 48.4284 343.989 49.5463 342.665 51.0021C341.341 52.406 340.322 54.0698 339.609 55.9936C339.37 56.6873 339.175 57.4046 339.022 58.1457L329.839 46.2312C330.814 44.7191 331.931 43.3198 333.192 42.0331C335.687 39.4854 338.616 37.5096 341.977 36.1058C345.339 34.7019 349.032 34 353.055 34C357.079 34 360.772 34.7019 364.133 36.1058C367.495 37.5096 370.423 39.4854 372.919 42.0331C375.415 44.5808 377.325 47.5705 378.649 51.0021C380.024 54.4338 380.712 58.2033 380.712 62.3109C380.712 66.3665 380.024 70.136 378.649 73.6197C377.402 76.8517 375.635 79.6916 373.348 82.1396L365.081 71.4128Z" fill="#057AFF"/>
<path d="M180.952 79.4332C180.229 80.4396 179.432 81.3874 178.561 82.2767C176.218 84.6684 173.417 86.5402 170.157 87.8921C166.897 89.192 163.307 89.8419 159.385 89.8419H137V36.1661L149.988 48.9516V78.1432H159.003C161.142 78.1432 163.052 77.7792 164.733 77.0513C166.413 76.2714 167.84 75.2055 169.011 73.8536C169.993 72.7681 170.793 71.4982 171.414 70.0439L180.952 79.4332Z" fill="#057AFF"/>
<path d="M181.761 78.2331C182.665 76.8034 183.432 75.2656 184.062 73.6197C185.335 70.24 185.972 66.5484 185.972 62.5449C185.972 58.5413 185.335 54.8757 184.062 51.5481C182.788 48.2204 180.955 45.3348 178.561 42.891C176.218 40.4473 173.417 38.5755 170.157 37.2756C166.897 35.9238 163.307 35.2479 159.385 35.2479H138.096L149.988 46.9549V46.9466H159.003C161.142 46.9466 163.052 47.3365 164.733 48.1165C166.413 48.8444 167.84 49.8843 169.011 51.2361C170.233 52.588 171.176 54.2258 171.838 56.1496C172.5 58.0734 172.831 60.2051 172.831 62.5449C172.831 64.7402 172.539 66.7524 171.957 68.5816L181.761 78.2331Z" fill="#057AFF"/>
<path fill-rule="evenodd" clip-rule="evenodd" d="M295.706 87.1774L281.793 69.1254L281.685 69.2121V48.4284H293.298L293.52 52.9203C293.691 52.7199 293.871 52.5224 294.062 52.328C295.437 50.9241 297.169 49.8063 299.257 48.9744C301.396 48.0905 303.637 47.6485 305.98 47.6485C309.443 47.6485 312.525 48.5844 315.224 50.4562C317.924 52.276 320.037 54.7977 321.565 58.0214C323.144 61.193 323.934 64.8846 323.934 69.0962C323.934 73.2557 323.144 76.9473 321.565 80.1709C320.037 83.3946 317.898 85.9423 315.148 87.8141C312.448 89.6339 309.342 90.5438 305.827 90.5438C303.535 90.5438 301.345 90.1018 299.257 89.2179C297.942 88.6614 296.759 87.9813 295.706 87.1774ZM307.661 78.6891C306.286 79.573 304.681 80.015 302.848 80.015C300.963 80.015 299.333 79.573 297.958 78.6891C296.583 77.7532 295.513 76.4793 294.749 74.8675C293.985 73.2557 293.603 71.3319 293.603 69.0962C293.603 66.9124 293.985 64.9886 294.749 63.3248C295.513 61.661 296.583 60.3871 297.958 59.5032C299.333 58.6193 300.963 58.1773 302.848 58.1773C304.732 58.1773 306.337 58.6453 307.661 59.5812C309.036 60.4651 310.106 61.739 310.869 63.4028C311.633 65.0146 312.015 66.9124 312.015 69.0962C312.015 71.3319 311.633 73.2557 310.869 74.8675C310.106 76.4793 309.036 77.7532 307.661 78.6891Z" fill="#057AFF"/>
<path d="M293.985 87.2689V107H281.685V71.3097L293.985 87.2689Z" fill="#057AFF"/>
</svg>
